ffmpeg version 3.4.8-0ubuntu0.2 Copyright (c) 2000-2020 the FFmpeg developers
  built with gcc 7 (Ubuntu 7.5.0-3ubuntu1~18.04)
  configuration: --prefix=/usr --extra-version=0ubuntu0.2 --toolchain=hardened --libdir=/usr/lib/x86_64-linux-gnu --incdir=/usr/include/x86_64-linux-gnu --enable-gpl --disable-stripping --enable-avresample --enable-avisynth --enable-gnutls --enable-ladspa --enable-libass --enable-libbluray --enable-libbs2b --enable-libcaca --enable-libcdio --enable-libflite --enable-libfontconfig --enable-libfreetype --enable-libfribidi --enable-libgme --enable-libgsm --enable-libmp3lame --enable-libmysofa --enable-libopenjpeg --enable-libopenmpt --enable-libopus --enable-libpulse --enable-librubberband --enable-librsvg --enable-libshine --enable-libsnappy --enable-libsoxr --enable-libspeex --enable-libssh --enable-libtheora --enable-libtwolame --enable-libvorbis --enable-libvpx --enable-libwavpack --enable-libwebp --enable-libx265 --enable-libxml2 --enable-libxvid --enable-libzmq --enable-libzvbi --enable-omx --enable-openal --enable-opengl --enable-sdl2 --enable-libdc1394 --enable-libdrm --enable-libiec61883 --enable-chromaprint --enable-frei0r --enable-libopencv --enable-libx264 --enable-shared
  libavutil      55. 78.100 / 55. 78.100
  libavcodec     57.107.100 / 57.107.100
  libavformat    57. 83.100 / 57. 83.100
  libavdevice    57. 10.100 / 57. 10.100
  libavfilter     6.107.100 /  6.107.100
  libavresample   3.  7.  0 /  3.  7.  0
  libswscale      4.  8.100 /  4.  8.100
  libswresample   2.  9.100 /  2.  9.100
  libpostproc    54.  7.100 / 54.  7.100
[rawvideo @ 0x5601605b9a20] Estimating duration from bitrate, this may be inaccurate
Input #0, rawvideo, from '../../SVC-Encoder-20220109T061506Z-001/SVC-Encoder/Dataset/RollerCoaster/ERP_8x8/tile_yuv/Tile_31_480x240.yuv':
  Duration: 00:00:10.00, start: 0.000000, bitrate: 41472 kb/s
    Stream #0:0: Video: rawvideo (I420 / 0x30323449), yuv420p, 480x240, 41472 kb/s, 30 tbr, 30 tbn, 30 tbc
Stream mapping:
  Stream #0:0 -> #0:0 (rawvideo (native) -> h264 (libx264))
Press [q] to stop, [?] for help
[libx264 @ 0x5601605c6c60] using cpu capabilities: MMX2 SSE2Fast LZCNT SSSE3 SSE4.2 AVX
[libx264 @ 0x5601605c6c60] profile High, level 2.1
Output #0, rawvideo, to 'RollerCoaster_Tile_31_480x240_x264_QP_32.h264':
  Metadata:
    encoder         : Lavf57.83.100
    Stream #0:0: Video: h264 (libx264), yuv420p, 480x240, q=-1--1, 30 fps, 30 tbn, 30 tbc
    Metadata:
      encoder         : Lavc57.107.100 libx264
    Side data:
      cpb: bitrate max/min/avg: 0/0/0 buffer size: 0 vbv_delay: -1
frame=  160 fps=0.0 q=38.0 PSNR=Y:nan U:nan V:nan *:nan size=      57kB time=00:00:03.90 bitrate= 119.3kbits/s speed=7.75x    frame=  300 fps=290 q=38.0 LPSNR=Y:inf U:inf V:inf *:inf size=     131kB time=00:00:09.93 bitrate= 107.6kbits/s speed=9.61x    
video:131kB audio:0kB subtitle:0kB other streams:0kB global headers:0kB muxing overhead: 0.000000%
[libx264 @ 0x5601605c6c60] frame I:2     Avg QP:29.61  size: 10162  PSNR Mean Y:36.41 U:44.88 V:48.47 Avg:37.95 Global:37.86
[libx264 @ 0x5601605c6c60] frame P:76    Avg QP:31.69  size:   998  PSNR Mean Y:34.71 U:44.99 V:47.74 Avg:36.31 Global:36.30
[libx264 @ 0x5601605c6c60] frame B:222   Avg QP:37.47  size:   169  PSNR Mean Y:34.52 U:44.92 V:47.75 Avg:36.14 Global:36.12
[libx264 @ 0x5601605c6c60] consecutive B-frames:  1.0%  0.7%  1.0% 97.3%
[libx264 @ 0x5601605c6c60] mb I  I16..4:  9.4% 86.1%  4.4%
[libx264 @ 0x5601605c6c60] mb P  I16..4:  0.1%  0.8%  0.2%  P16..4: 42.9% 10.2%  2.7%  0.0%  0.0%    skip:43.1%
[libx264 @ 0x5601605c6c60] mb B  I16..4:  0.0%  0.0%  0.0%  B16..8: 28.6%  1.0%  0.1%  direct: 0.1%  skip:70.3%  L0:27.3% L1:71.8% BI: 0.9%
[libx264 @ 0x5601605c6c60] 8x8 transform intra:80.2% inter:71.7%
[libx264 @ 0x5601605c6c60] coded y,uvDC,uvAC intra: 86.9% 62.8% 4.5% inter: 3.8% 1.6% 0.0%
[libx264 @ 0x5601605c6c60] i16 v,h,dc,p: 16% 18% 40% 26%
[libx264 @ 0x5601605c6c60] i8 v,h,dc,ddl,ddr,vr,hd,vl,hu: 12% 17% 16%  7%  8%  8% 11%  7% 14%
[libx264 @ 0x5601605c6c60] i4 v,h,dc,ddl,ddr,vr,hd,vl,hu: 18% 18% 23%  6%  8%  9%  8%  5%  6%
[libx264 @ 0x5601605c6c60] i8c dc,h,v,p: 55% 21% 16%  8%
[libx264 @ 0x5601605c6c60] Weighted P-Frames: Y:0.0% UV:0.0%
[libx264 @ 0x5601605c6c60] ref P L0: 63.2% 22.8% 11.7%  2.4%
[libx264 @ 0x5601605c6c60] ref B L0: 87.8% 11.0%  1.2%
[libx264 @ 0x5601605c6c60] ref B L1: 83.5% 16.5%
[libx264 @ 0x5601605c6c60] PSNR Mean Y:34.583 U:44.937 V:47.756 Avg:36.193 Global:36.177 kb/s:106.92
